<mxfile host="app.diagrams.net" modified="2024-01-13T07:54:01.512Z" agent="Mozilla/5.0 (Windows NT 10.0; Win64; x64) AppleWebKit/537.36 (KHTML, like Gecko) Chrome/120.0.0.0 Safari/537.36 Edg/120.0.0.0" version="22.1.18" etag="_Dwrwlzi7SsaRSKzg1xj" type="github">
  <diagram name="第 1 页" id="sI7hNG2p3jesubOJCjaC">
    <mxGraphModel>
      <root>
        <mxCell id="0" />
        <mxCell id="1" parent="0" />
      </root>
    </mxGraphModel>
  </diagram>
</mxfile>
